<?xml version="1.0" encoding="UTF-8" standalone="no"?><svg xmlns="http://www.w3.org/2000/svg" xmlns:xlink="http://www.w3.org/1999/xlink" clip-rule="evenodd" stroke-miterlimit="4.00" viewBox="0 0 1024 768"><desc>SVG generated by Keynote</desc><defs></defs><g transform="matrix(1.00, 0.00, -0.00, -1.00, 0.0, 768.0)"><g><clipPath id="clip-14"><path d="M 0.0 768.0 L 1024.0 768.0 L 1024.0 0.0 L 0.0 0.0 Z M 0.0 768.0 "></path></clipPath><g clip-path="url(#clip-14)"><image xlink:href="../../1F6B8C91-951C-47F4-BE1D-50FF92226F16/assets/E7ABA782A15EA3475B4CFCC80A2FEB63.jpeg" width="1024.00" height="768.00" transform="matrix(1.00, 0.00, -0.00, -1.00, 0.0, 768.0)"></image></g></g><text xml:space="preserve" font-family="ArialUnicodeMS" font-size="42.2" fill="#FEFFFE" transform="matrix(1.00, 0.00, -0.00, -1.00, 388.0, 586.0)">整</text><text xml:space="preserve" font-family="ArialUnicodeMS" font-size="42.2" fill="#FEFFFE" transform="matrix(1.00, 0.00, -0.00, -1.00, 430.2, 586.0)">体</text><text xml:space="preserve" font-family="ArialUnicodeMS" font-size="42.2" fill="#FEFFFE" transform="matrix(1.00, 0.00, -0.00, -1.00, 472.5, 586.0)">流</text><text xml:space="preserve" font-family="ArialUnicodeMS" font-size="42.2" fill="#FEFFFE" transform="matrix(1.00, 0.00, -0.00, -1.00, 514.7, 586.0)">程</text><text xml:space="preserve" font-family="ArialUnicodeMS" font-size="42.2" fill="#FEFFFE" transform="matrix(1.00, 0.00, -0.00, -1.00, 557.0, 586.0)">图</text><text xml:space="preserve" font-family="ArialUnicodeMS" font-size="17.3" fill="#FEFFFE" transform="matrix(1.00, 0.00, -0.00, -1.00, 599.2, 586.0)"> </text><image xlink:href="../../F8362FE6-9100-41B9-8651-1CA33B47FB50/assets/C63EA37A6C111331F9CA12103DF866F7.png" width="670.00" height="468.00" transform="matrix(1.00, 0.00, -0.00, -1.00, 159.0, 531.0)"></image></g></svg>